<svg viewBox="0 0 46 38" xmlns="http://www.w3.org/2000/svg">
<path d="M14.2 12.5789H-0.2C-0.6424 12.5789 -1 12.9219 -1 13.3464V17.9517C-1 18.3761 -0.6424 18.7192 -0.2 18.7192H0.6V36.3727C0.6 36.7972 0.9576 37.1403 1.4 37.1403H12.6C13.0424 37.1403 13.4 36.7972 13.4 36.3727V33.3025V21.7894V18.7192H14.2C14.6424 18.7192 15 18.3761 15 17.9517V13.3464C15 12.9219 14.6424 12.5789 14.2 12.5789ZM5.4 27.1622V25.6271H10.2V24.092H5.4V22.5569H11.8V32.535H5.4V28.6973H7V27.1622H5.4ZM11.8 21.0218H4.6C4.1576 21.0218 3.8 21.3649 3.8 21.7894V33.3025C3.8 33.727 4.1576 34.0701 4.6 34.0701H11.8V35.6052H2.2V18.7192H11.8V21.0218ZM13.4 17.1841H12.6H1.4H0.6V14.1139H13.4V17.1841Z" />
<path d="M24.8 12.7227V7.1112C24.8 6.6742 24.4424 6.32096 24 6.32096H23.2V2.36978H24.8V0.789307H16V2.36978H21.6V6.32096H20.8C20.3576 6.32096 20 6.6742 20 7.1112V12.7227C18.1768 13.0901 16.8 14.6856 16.8 16.594V18.1745V33.189V36.3499C16.8 36.787 17.1576 37.1402 17.6 37.1402H27.2C27.6424 37.1402 28 36.787 28 36.3499V33.189V18.1745V16.594C28 14.6864 26.6232 13.0901 24.8 12.7227ZM21.6 7.90144H23.2V12.6429H21.6V7.90144ZM20.8 14.2233H24C25.3232 14.2233 26.4 15.287 26.4 16.594V17.3843H18.4V16.594C18.4 15.287 19.4768 14.2233 20.8 14.2233ZM26.4 32.3988H18.4V30.8183H21.6V29.2378H18.4V18.9647H26.4V32.3988ZM18.4 35.5597V33.9792H26.4V35.5597H18.4Z"/>
<path d="M45.25 11.5964H31.75C31.3353 11.5964 31 11.9424 31 12.3705V36.3662C31 36.7943 31.3353 37.1403 31.75 37.1403H45.25C45.6648 37.1403 46 36.7943 46 36.3662V12.3705C46 11.9424 45.6648 11.5964 45.25 11.5964ZM44.5 35.5922H32.5V13.1445H44.5V35.5922Z" />
<path d="M11 27.3157H9V28.2981H11V27.3157Z" />
<path d="M25 29.2805H23V31.2454H25V29.2805Z" />
<path d="M22.5 27.3157C24.4303 27.3157 26 25.7735 26 23.8771C26 21.9807 24.4303 20.4385 22.5 20.4385C20.5697 20.4385 19 21.9807 19 23.8771C19 25.7735 20.5697 27.3157 22.5 27.3157ZM22.5 22.1578C23.4651 22.1578 24.25 22.9289 24.25 23.8771C24.25 24.8253 23.4651 25.5964 22.5 25.5964C21.5349 25.5964 20.75 24.8253 20.75 23.8771C20.75 22.9289 21.5349 22.1578 22.5 22.1578Z" />
<path d="M36.625 19.456H40.375C41.8225 19.456 43 18.3542 43 16.9998C43 15.6455 41.8225 14.5437 40.375 14.5437H36.625C35.1775 14.5437 34 15.6455 34 16.9998C34 18.3542 35.1775 19.456 36.625 19.456ZM41.5 16.9998C41.5 17.5802 40.9953 18.0525 40.375 18.0525H39.25V15.9472H40.375C40.9953 15.9472 41.5 16.4195 41.5 16.9998ZM36.625 15.9472H37.75V18.0525H36.625C36.0048 18.0525 35.5 17.5802 35.5 16.9998C35.5 16.4195 36.0048 15.9472 36.625 15.9472Z" />
<path d="M36.625 27.3156H40.375C41.8225 27.3156 43 25.9935 43 24.3683C43 22.743 41.8225 21.4209 40.375 21.4209H36.625C35.1775 21.4209 34 22.743 34 24.3683C34 25.9935 35.1775 27.3156 36.625 27.3156ZM41.5 24.3683C41.5 25.0647 40.9953 25.6314 40.375 25.6314H39.25V23.1051H40.375C40.9953 23.1051 41.5 23.6718 41.5 24.3683ZM36.625 23.1051H37.75V25.6314H36.625C36.0048 25.6314 35.5 25.0647 35.5 24.3683C35.5 23.6718 36.0048 23.1051 36.625 23.1051Z" />
<path d="M36.625 34.1928H40.375C41.8225 34.1928 43 32.8707 43 31.2455C43 29.6202 41.8225 28.2981 40.375 28.2981H36.625C35.1775 28.2981 34 29.6202 34 31.2455C34 32.8707 35.1775 34.1928 36.625 34.1928ZM41.5 31.2455C41.5 31.9419 40.9953 32.5086 40.375 32.5086H39.25V29.9823H40.375C40.9953 29.9823 41.5 30.549 41.5 31.2455ZM36.625 29.9823H37.75V32.5086H36.625C36.0048 32.5086 35.5 31.9419 35.5 31.2455C35.5 30.549 36.0048 29.9823 36.625 29.9823Z" />
</svg>
