<svg viewBox="0 0 17 30" xmlns="http://www.w3.org/2000/svg">
<path d="M15.9867 0.261223C14.6417 0.109624 13.2899 0.0358483 11.9374 0.0402227C7.4534 0.0402227 4.66673 3.07472 4.66673 7.95939V11.2758H0.900065C0.723254 11.2758 0.553684 11.3504 0.42866 11.4833C0.303636 11.6161 0.233398 11.7963 0.233398 11.9841V17.4383C0.233398 17.6262 0.303636 17.8063 0.42866 17.9392C0.553684 18.072 0.723254 18.1466 0.900065 18.1466H4.66673V29.0833C4.66673 29.2712 4.73697 29.4513 4.86199 29.5842C4.98702 29.717 5.15659 29.7916 5.3334 29.7916H10.6374C10.8142 29.7916 10.9838 29.717 11.1088 29.5842C11.2338 29.4513 11.3041 29.2712 11.3041 29.0833V18.1466H15.0587C15.2206 18.1467 15.3769 18.0842 15.4986 17.9708C15.6203 17.8575 15.699 17.7009 15.7201 17.5304L16.3827 12.0762C16.3951 11.9763 16.3872 11.8746 16.3596 11.7782C16.332 11.6817 16.2853 11.5926 16.2227 11.5168C16.1601 11.4411 16.083 11.3804 15.9966 11.3388C15.9101 11.2972 15.8163 11.2758 15.7214 11.2758H11.3041V8.50056C11.3041 7.12639 11.5641 6.55264 13.1814 6.55264H15.9001C16.0769 6.55264 16.2464 6.47801 16.3715 6.34517C16.4965 6.21234 16.5667 6.03217 16.5667 5.84431V0.963889C16.5668 0.791918 16.508 0.625789 16.4013 0.496497C16.2946 0.367204 16.1472 0.283579 15.9867 0.261223ZM15.2334 5.13456L13.1801 5.13597C10.3041 5.13597 9.97073 7.05697 9.97073 8.50056V11.9856C9.97073 12.1732 10.0408 12.3531 10.1655 12.4859C10.2903 12.6187 10.4595 12.6935 10.6361 12.6939H14.9641L14.4721 16.7314H10.6374C10.4606 16.7314 10.291 16.806 10.166 16.9389C10.041 17.0717 9.97073 17.2519 9.97073 17.4397V28.3736H6.00006V17.4397C6.00006 17.2519 5.92983 17.0717 5.8048 16.9389C5.67978 16.806 5.51021 16.7314 5.3334 16.7314H1.56807V12.6939H5.3334C5.51021 12.6939 5.67978 12.6193 5.8048 12.4864C5.92983 12.3536 6.00006 12.1734 6.00006 11.9856V7.95939C6.00006 3.88789 8.22007 1.45689 11.9374 1.45689C13.2827 1.45689 14.4974 1.53481 15.2334 1.60281V5.13456Z" />
</svg>
