<?xml version="1.0" encoding="utf-8"?><svg xmlns="http://www.w3.org/2000/svg" xmlns:xlink="http://www.w3.org/1999/xlink"><symbol viewBox="0 0 18 16" id="icons--arrow" xmlns="http://www.w3.org/2000/svg"><path d="M17.707 7.293a1 1 0 0 1 0 1.414l-6.364 6.364a1 1 0 0 1-1.414-1.414L15.586 8 9.929 2.343A1 1 0 0 1 11.343.93l6.364 6.364ZM17 9H.238V7H17v2Z"/></symbol><symbol viewBox="0 0 40 44" id="icons--benefit-1" xmlns="http://www.w3.org/2000/svg"><path d="M20.092.1c-1.575 0-3.046.717-4.3 1.891-1.254 1.175-2.327 2.81-3.222 4.793-.187.415-.366.846-.537 1.291a24.782 24.782 0 0 0-1.39-.18 20.895 20.895 0 0 0-1.582-.1c-1.54-.036-2.947.12-4.18.493-1.644.499-3 1.415-3.788 2.778-.787 1.364-.902 2.997-.511 4.67.39 1.673 1.27 3.42 2.54 5.186.265.37.55.742.85 1.113a24.74 24.74 0 0 0-.85 1.112C1.853 24.913.973 26.66.582 28.333c-.39 1.673-.275 3.306.512 4.67.788 1.364 2.145 2.279 3.789 2.777 1.644.499 3.597.61 5.76.394.454-.045.917-.106 1.389-.18.167.436.347.868.538 1.294.895 1.982 1.968 3.618 3.222 4.792 1.254 1.175 2.725 1.892 4.3 1.892 1.575 0 3.046-.717 4.3-1.892 1.253-1.175 2.326-2.81 3.22-4.792.193-.426.372-.857.54-1.294.47.074.933.135 1.386.18 2.164.216 4.118.105 5.761-.394 1.645-.498 3.001-1.414 3.789-2.778.787-1.364.901-2.996.511-4.669-.39-1.673-1.27-3.42-2.54-5.186a24.94 24.94 0 0 0-.849-1.112 24.6 24.6 0 0 0 .85-1.113c1.27-1.765 2.15-3.513 2.54-5.186.39-1.673.276-3.306-.511-4.67C38.3 9.703 36.944 8.787 35.3 8.29c-1.233-.374-2.64-.53-4.18-.494-.513.012-1.04.046-1.582.1a24.84 24.84 0 0 0-1.389.18 24.887 24.887 0 0 0-.537-1.291c-.895-1.982-1.968-3.618-3.222-4.793C23.137.817 21.667.1 20.09.1Zm0 1.752c1.05 0 2.08.461 3.102 1.418 1.02.957 1.996 2.405 2.822 4.234.134.299.262.6.383.904-2.008.447-4.134 1.132-6.308 2.047-2.173-.915-4.3-1.6-6.307-2.046.124-.31.252-.613.383-.905.826-1.83 1.802-3.277 2.823-4.234 1.021-.957 2.051-1.418 3.102-1.418ZM8.505 9.544a18.73 18.73 0 0 1 1.963.094c.32.032.646.073.978.12-.618 1.963-1.088 4.147-1.383 6.486-1.879 1.425-3.536 2.925-4.926 4.44a20.68 20.68 0 0 1-.593-.785c-1.172-1.63-1.938-3.198-2.256-4.561-.318-1.363-.203-2.486.323-3.396.525-.91 1.44-1.57 2.779-1.977.879-.266 1.931-.41 3.115-.42Zm23.172 0c1.184.011 2.236.155 3.115.421 1.34.406 2.254 1.068 2.78 1.977.525.91.64 2.033.322 3.396s-1.084 2.931-2.256 4.561c-.191.267-.39.528-.593.786-1.39-1.516-3.046-3.015-4.925-4.44-.294-2.34-.765-4.524-1.382-6.486.33-.048.657-.09.976-.12a18.784 18.784 0 0 1 1.963-.095Zm-4.68.53a34.03 34.03 0 0 1 1.14 4.752 47.596 47.596 0 0 0-5.826-3.363c1.624-.605 3.2-1.07 4.686-1.39Zm-13.81 0c1.485.32 3.06.784 4.684 1.389a47.665 47.665 0 0 0-5.824 3.362 33.998 33.998 0 0 1 1.14-4.752Zm6.904 2.293a44.86 44.86 0 0 1 4.315 2.192c1.444.834 2.8 1.722 4.058 2.642.169 1.55.26 3.169.26 4.835 0 1.665-.091 3.284-.26 4.832a44.855 44.855 0 0 1-4.057 2.642 44.82 44.82 0 0 1-4.316 2.192 44.8 44.8 0 0 1-4.316-2.193 44.825 44.825 0 0 1-4.056-2.64 44.83 44.83 0 0 1-.259-4.833c0-1.667.09-3.286.259-4.836a44.831 44.831 0 0 1 4.057-2.64 44.86 44.86 0 0 1 4.315-2.193Zm.119 2.635-5.016 3.096 5.016 3.096 5.015-3.096-5.015-3.095Zm-10.384 3.67a47.74 47.74 0 0 0 0 6.726 33.995 33.995 0 0 1-3.546-3.363 34.006 34.006 0 0 1 3.546-3.364Zm20.532 0a34.03 34.03 0 0 1 3.545 3.363 33.997 33.997 0 0 1-3.545 3.362 47.718 47.718 0 0 0 0-6.725Zm-16.294.787v6.113l5.268 3.25V22.71l-5.268-3.25Zm12.287.003-5.267 3.25v6.11l5.267-3.25v-6.11ZM5.137 23.385c1.39 1.516 3.047 3.015 4.926 4.44.294 2.34.765 4.523 1.382 6.485-.33.048-.657.089-.976.12-1.997.2-3.739.08-5.078-.327-1.34-.406-2.254-1.067-2.78-1.977-.524-.91-.64-2.032-.322-3.395s1.085-2.932 2.256-4.562c.191-.266.389-.527.592-.784Zm29.908 0c.207.263.405.524.592.784 1.171 1.63 1.938 3.199 2.256 4.562.318 1.363.203 2.485-.323 3.395-.525.91-1.44 1.572-2.779 1.977-1.339.406-3.08.527-5.078.328a24.7 24.7 0 0 1-.975-.12c.618-1.963 1.088-4.148 1.382-6.488C32 26.4 33.655 24.9 35.045 23.386Zm-6.908 5.858a34.018 34.018 0 0 1-1.14 4.753 34 34 0 0 1-4.685-1.39 47.777 47.777 0 0 0 5.825-3.363Zm-16.09 0a47.656 47.656 0 0 0 5.823 3.363 33.986 33.986 0 0 1-4.685 1.39 33.993 33.993 0 0 1-1.139-4.752Zm8.096.08.064.04.064-.04h-.128Zm-.052 4.291c2.174.915 4.3 1.6 6.309 2.046a22.6 22.6 0 0 1-.384.907c-.826 1.83-1.801 3.277-2.823 4.234-1.02.957-2.05 1.419-3.101 1.419-1.05 0-2.08-.462-3.102-1.419-1.021-.957-1.997-2.405-2.823-4.234-.134-.3-.262-.602-.384-.907 2.008-.446 4.134-1.13 6.308-2.046Z"/></symbol><symbol viewBox="0 0 46 38" id="icons--benefit-2" xmlns="http://www.w3.org/2000/svg"><path d="M14.2 12.579H-.2c-.442 0-.8.343-.8.767v4.606c0 .424.358.767.8.767h.8v17.654c0 .424.358.767.8.767h11.2c.442 0 .8-.343.8-.767V18.719h.8c.442 0 .8-.343.8-.767v-4.606c0-.424-.358-.767-.8-.767ZM5.4 27.162v-1.535h4.8v-1.535H5.4v-1.535h6.4v9.978H5.4v-3.838H7v-1.535H5.4Zm6.4-6.14H4.6c-.442 0-.8.343-.8.767v11.514c0 .424.358.767.8.767h7.2v1.535H2.2V18.72h9.6v2.303Zm1.6-3.838H.6v-3.07h12.8v3.07Zm11.4-4.461V7.11a.794.794 0 0 0-.8-.79h-.8V2.37h1.6V.79H16v1.58h5.6v3.95h-.8c-.442 0-.8.353-.8.79v5.612c-1.823.367-3.2 1.963-3.2 3.871v19.755c0 .438.358.791.8.791h9.6c.442 0 .8-.353.8-.79V16.594c0-1.908-1.377-3.504-3.2-3.871ZM21.6 7.9h1.6v4.742h-1.6V7.9Zm-.8 6.322H24c1.323 0 2.4 1.064 2.4 2.371v.79h-8v-.79c0-1.307 1.077-2.37 2.4-2.37ZM26.4 32.4h-8v-1.58h3.2v-1.581h-3.2V18.965h8v13.434Zm-8 3.16v-1.58h8v1.58h-8Zm26.85-23.964h-13.5a.762.762 0 0 0-.75.774v23.996c0 .428.335.774.75.774h13.5c.415 0 .75-.346.75-.774V12.371a.762.762 0 0 0-.75-.775Zm-.75 23.996h-12V13.145h12v22.447Z"/><path d="M11 27.316H9v.982h2v-.982Zm14 1.964h-2v1.965h2V29.28Zm-2.5-1.964c1.93 0 3.5-1.543 3.5-3.439 0-1.896-1.57-3.438-3.5-3.438S19 21.98 19 23.877c0 1.896 1.57 3.439 3.5 3.439Zm0-5.158c.965 0 1.75.77 1.75 1.72 0 .947-.785 1.718-1.75 1.718s-1.75-.77-1.75-1.719c0-.948.785-1.72 1.75-1.72Zm14.125-2.702h3.75C41.822 19.456 43 18.354 43 17c0-1.354-1.178-2.456-2.625-2.456h-3.75C35.178 14.544 34 15.645 34 17c0 1.354 1.178 2.456 2.625 2.456ZM41.5 17c0 .58-.505 1.052-1.125 1.052H39.25v-2.105h1.125c.62 0 1.125.473 1.125 1.053Zm-4.875-1.053h1.125v2.105h-1.125c-.62 0-1.125-.472-1.125-1.052 0-.58.505-1.053 1.125-1.053Zm0 11.369h3.75c1.447 0 2.625-1.322 2.625-2.948 0-1.625-1.178-2.947-2.625-2.947h-3.75c-1.447 0-2.625 1.322-2.625 2.947 0 1.626 1.178 2.948 2.625 2.948Zm4.875-2.948c0 .697-.505 1.263-1.125 1.263H39.25v-2.526h1.125c.62 0 1.125.567 1.125 1.263Zm-4.875-1.263h1.125v2.526h-1.125c-.62 0-1.125-.566-1.125-1.263 0-.696.505-1.263 1.125-1.263Zm0 11.088h3.75c1.447 0 2.625-1.322 2.625-2.947 0-1.626-1.178-2.948-2.625-2.948h-3.75c-1.447 0-2.625 1.322-2.625 2.948 0 1.625 1.178 2.947 2.625 2.947Zm4.875-2.947c0 .696-.505 1.263-1.125 1.263H39.25v-2.527h1.125c.62 0 1.125.567 1.125 1.264Zm-4.875-1.264h1.125v2.527h-1.125c-.62 0-1.125-.567-1.125-1.264 0-.696.505-1.263 1.125-1.263Z"/></symbol><symbol viewBox="0 0 44 36" id="icons--benefit-3" xmlns="http://www.w3.org/2000/svg"><path d="M42.531 8.49a2.532 2.532 0 0 0-1.325-.638 2.428 2.428 0 0 0-1.431.225l-9.469 4.62a.332.332 0 0 1-.4-.044.388.388 0 0 1-.087-.121L24.287 1.6A2.765 2.765 0 0 0 23.33.509 2.43 2.43 0 0 0 22 .108a2.43 2.43 0 0 0-1.33.401 2.77 2.77 0 0 0-.958 1.092l-5.53 10.93a.388.388 0 0 1-.089.122.348.348 0 0 1-.124.074.332.332 0 0 1-.275-.03l-9.47-4.62a2.412 2.412 0 0 0-1.429-.233 2.513 2.513 0 0 0-1.325.635 2.91 2.91 0 0 0-.818 1.31 3.164 3.164 0 0 0-.065 1.588L5.37 33.714c.08.377.23.733.44 1.045.21.312.474.574.778.77.401.27.862.412 1.332.412.24-.002.48-.037.712-.103a45.837 45.837 0 0 1 26.719-.02c.34.108.698.139 1.05.09a2.449 2.449 0 0 0 1-.37 2.73 2.73 0 0 0 .785-.773c.212-.314.364-.671.446-1.051l4.763-22.337a3.118 3.118 0 0 0-.052-1.581 2.87 2.87 0 0 0-.81-1.307ZM41.22 10.8l-4.782 22.336a.477.477 0 0 1-.168.268.43.43 0 0 1-.3.042 47.873 47.873 0 0 0-27.938 0 .34.34 0 0 1-.295-.043.39.39 0 0 1-.112-.114.434.434 0 0 1-.062-.153L2.782 10.8a.475.475 0 0 1 .078-.353.402.402 0 0 1 .132-.117.365.365 0 0 1 .164-.045l.15.041 9.488 4.64a2.388 2.388 0 0 0 1.898.105 2.689 2.689 0 0 0 1.458-1.342l5.53-10.932a.38.38 0 0 1 .131-.158.333.333 0 0 1 .375 0 .381.381 0 0 1 .132.158l5.53 10.931c.316.633.837 1.113 1.459 1.342.622.23 1.3.192 1.898-.104l9.488-4.64a.344.344 0 0 1 .393.06.415.415 0 0 1 .12.187.452.452 0 0 1 .012.226ZM29.125 26.473a1.304 1.304 0 0 1-.371.791 1.09 1.09 0 0 1-.754.323h-.113a53.518 53.518 0 0 0-11.775 0 1.055 1.055 0 0 1-.823-.265 1.275 1.275 0 0 1-.414-.828 1.346 1.346 0 0 1 .254-.908 1.12 1.12 0 0 1 .758-.453 52.683 52.683 0 0 1 12.225 0c.294.036.563.196.752.446.188.25.282.57.26.894Z"/></symbol><symbol fill="none" viewBox="0 0 18 18" id="icons--close" xmlns="http://www.w3.org/2000/svg"><path d="m1 1 8 8 8-8M1 17l8-8 8 8"/></symbol><symbol viewBox="0 0 17 30" id="icons--facebook" xmlns="http://www.w3.org/2000/svg"><path d="M15.987.261a35.136 35.136 0 0 0-4.05-.22c-4.484 0-7.27 3.034-7.27 7.918v3.317H.9a.647.647 0 0 0-.471.207.731.731 0 0 0-.196.501v5.454c0 .188.07.368.196.501a.647.647 0 0 0 .471.208h3.767v10.936c0 .188.07.368.195.501a.648.648 0 0 0 .471.208h5.304a.647.647 0 0 0 .472-.208.732.732 0 0 0 .195-.5V18.146h3.755a.644.644 0 0 0 .44-.176c.121-.113.2-.27.221-.44l.663-5.455a.75.75 0 0 0-.16-.56.673.673 0 0 0-.226-.177.634.634 0 0 0-.276-.063h-4.417V8.5c0-1.375.26-1.948 1.877-1.948h2.72a.648.648 0 0 0 .47-.208.731.731 0 0 0 .196-.5V.963A.735.735 0 0 0 16.4.496a.656.656 0 0 0-.414-.235Zm-.754 4.874-2.053.001c-2.876 0-3.21 1.921-3.21 3.365v3.485c0 .187.07.367.195.5a.648.648 0 0 0 .471.208h4.328l-.492 4.037h-3.835a.647.647 0 0 0-.471.208.731.731 0 0 0-.195.5v10.935H6V17.44a.731.731 0 0 0-.196-.501.647.647 0 0 0-.472-.208H1.568v-4.037h3.765a.647.647 0 0 0 .472-.208.731.731 0 0 0 .195-.5V7.959c0-4.071 2.22-6.502 5.937-6.502 1.346 0 2.56.078 3.296.146v3.532Z"/></symbol><symbol viewBox="0 0 26 26" id="icons--instagram" xmlns="http://www.w3.org/2000/svg"><path d="M13 7.25a5.75 5.75 0 1 0 0 11.5 5.75 5.75 0 0 0 0-11.5Zm0 10A4.25 4.25 0 1 1 17.25 13 4.263 4.263 0 0 1 13 17.25ZM18.5.75h-11A6.75 6.75 0 0 0 .75 7.5v11a6.75 6.75 0 0 0 6.75 6.75h11a6.75 6.75 0 0 0 6.75-6.75v-11A6.75 6.75 0 0 0 18.5.75Zm5.25 17.75a5.25 5.25 0 0 1-5.25 5.25h-11a5.25 5.25 0 0 1-5.25-5.25v-11A5.25 5.25 0 0 1 7.5 2.25h11a5.25 5.25 0 0 1 5.25 5.25v11Zm-3-12a1.25 1.25 0 1 1-2.5 0 1.25 1.25 0 0 1 2.5 0Z"/></symbol><symbol viewBox="0 0 28 32" id="icons--phone" xmlns="http://www.w3.org/2000/svg"><path d="m25.655 22.957-.173-.216c-1.372-1.734-2.52-2.637-3.503-2.756-.85-.116-1.673.472-2.548 1.078l-.935.584a2.014 2.014 0 0 1-.326.132c-.547.154-1.927.245-2.708-.47-.91-.832-2.32-2.354-3.418-3.685-1.048-1.377-2.2-3.095-2.801-4.176-.508-.916-.083-2.197.201-2.672.056-.093.13-.185.21-.276l.825-.761c.012-.012.017-.027.028-.038.008-.008.021-.005.03-.012.745-.628 1.514-1.274 1.62-2.105.123-.976-.483-2.296-1.858-4.03l-.168-.215C9.28 2.248 7.994.599 6.146.87c-.727.108-1.376.356-2.046.776-.006.004-.01.012-.016.016-.005.004-.012.004-.017.008l-.932.69c-.01.006-.015.018-.024.026-.007.006-.017.008-.025.014a13.74 13.74 0 0 0-.323.28c-.945.843-2.992 3.29-1.596 7.815.901 2.923 2.76 6.333 5.388 9.883l-.025.021 1.449 1.805.012-.009c2.85 3.37 5.75 5.976 8.407 7.553 1.773 1.054 3.322 1.402 4.597 1.402 1.677 0 2.879-.603 3.481-.995l.379-.253c.043-.03.073-.071.104-.108l.825-.622c.01-.008.015-.018.024-.026.004-.004.01-.003.016-.007.587-.536.994-1.097 1.276-1.763.732-1.705-.578-3.338-1.445-4.42Zm.465 4.002c-.22.517-.541.957-1.005 1.384l-1.228.924c-1.112.722-3.49 1.616-6.943-.435-2.657-1.577-5.582-4.244-8.461-7.712l-.779-.984c-2.71-3.595-4.617-7.037-5.517-9.955-1.17-3.793.304-5.828 1.29-6.706.1-.091.2-.175.3-.259l.003-.004.895-.663a4.067 4.067 0 0 1 1.628-.624c1.239-.186 2.247 1.12 2.987 2.07l.173.22c1.536 1.937 1.684 2.858 1.636 3.234-.053.418-.688.952-1.248 1.423l-.079.067-.006.009-.012.007-.852.788c-.006.005-.008.012-.014.018-.005.007-.016.01-.021.016a2.996 2.996 0 0 0-.337.45c-.48.801-.931 2.457-.218 3.738.623 1.12 1.808 2.89 2.898 4.319 1.138 1.381 2.59 2.95 3.532 3.81.705.643 1.686.86 2.536.86.454 0 .872-.063 1.188-.153.166-.048.338-.117.516-.204.01-.005.016-.014.026-.021.006-.003.014-.001.019-.005l.99-.619c.031-.021.053-.05.08-.076l.011.013c.61-.422 1.304-.918 1.739-.846.385.046 1.26.417 2.799 2.36l.177.222c.75.935 1.776 2.215 1.297 3.334Z"/></symbol><symbol viewBox="0 0 35 35" id="icons--star-blue" xmlns="http://www.w3.org/2000/svg"><path d="m27.32 0-3.818 15.664L34.641 27.32l-15.664-3.818L7.32 34.641l3.818-15.664L0 7.32l15.664 3.818L27.32 0Z"/></symbol><symbol viewBox="0 0 56 56" id="icons--star-dark" xmlns="http://www.w3.org/2000/svg"><path d="m11.713 0 18.65 17.822 25.063-6.11-17.822 18.651 6.109 25.063-18.65-17.822L0 43.713l17.822-18.65L11.712 0Z"/></symbol><symbol viewBox="0 0 15 16" id="icons--star-grey" xmlns="http://www.w3.org/2000/svg"><path d="M4.482.568 8.56 5.565l6.406-.741L9.968 8.9l.742 6.406-4.077-4.997-6.406.742 4.997-4.077L4.482.568Z"/></symbol></svg>