<?xml version="1.0" standalone="no"?>
<!DOCTYPE svg PUBLIC "-//W3C//DTD SVG 20010904//EN"
 "http://www.w3.org/TR/2001/REC-SVG-20010904/DTD/svg10.dtd">
<svg version="1.0" xmlns="http://www.w3.org/2000/svg"
 width="455.000000pt" height="455.000000pt" viewBox="0 0 455.000000 455.000000"
 preserveAspectRatio="xMidYMid meet">
<metadata>
Created by potrace 1.14, written by Peter Selinger 2001-2017
</metadata>
<g transform="translate(0.000000,455.000000) scale(0.100000,-0.100000)"
fill="#000000" stroke="none">
<path d="M58 3299 c-7 -4 -10 -145 -10 -445 1 -242 1 -444 1 -449 1 -15 468
-11 545 3 81 16 143 49 169 91 19 32 22 50 22 156 0 140 -9 160 -89 199 -49
23 -49 24 -25 36 63 34 77 69 74 188 -3 139 -27 176 -136 207 -49 13 -109 17
-301 19 -131 1 -244 -1 -250 -5z m462 -176 c12 -16 17 -37 15 -75 -2 -71 -12
-96 -38 -104 -38 -12 -227 -12 -228 0 -1 15 -1 167 0 188 1 14 15 16 117 14
106 -1 118 -3 134 -23z m-16 -337 c45 -9 66 -45 66 -115 0 -103 -24 -118 -192
-120 l-113 -2 1 114 c0 62 3 117 6 122 7 11 176 11 232 1z"/>
<path d="M3399 3267 c-1 -1 -3 -42 -4 -92 -1 -49 -3 -93 -4 -97 0 -4 -27 -6
-59 -6 -32 1 -62 -1 -68 -4 -7 -5 -9 -47 -5 -113 1 -7 27 -10 66 -9 36 0 66
-2 66 -5 1 -3 2 -96 3 -206 1 -191 2 -202 26 -250 20 -40 35 -55 75 -75 43
-21 66 -24 159 -26 60 -1 114 0 121 2 7 3 11 28 10 66 l0 62 -66 -3 c-52 -2
-70 2 -90 17 -24 20 -24 22 -27 220 l-3 200 90 -2 c50 -1 92 1 92 4 1 3 2 31
4 63 l2 57 -31 1 c-17 1 -59 1 -93 2 l-63 0 -1 91 c-1 50 -1 94 0 98 1 6 -197
11 -200 5z"/>
<path d="M1130 3078 c-85 -13 -154 -49 -187 -99 -28 -42 -28 -44 -32 -223 -3
-192 4 -243 42 -284 30 -33 85 -59 159 -77 93 -22 381 -11 414 16 9 7 12 90 5
120 0 3 -36 -1 -78 -9 -89 -15 -256 -12 -290 7 -30 16 -49 57 -48 106 l0 40
220 5 220 5 -2 118 c-1 97 -5 126 -23 161 -24 50 -75 89 -140 106 -56 15 -187
19 -260 8z m212 -147 c15 -19 18 -37 16 -80 l-3 -56 -110 -1 c-60 0 -115 1
-120 3 -9 3 -12 85 -6 125 3 23 60 38 130 35 63 -2 76 -6 93 -26z"/>
<path d="M1847 3084 c-1 -1 -28 -4 -60 -5 l-57 -2 0 -69 c0 -46 4 -67 11 -63
5 4 79 9 164 11 149 4 154 4 180 -19 22 -19 28 -32 29 -72 l1 -50 -142 -2
c-77 -1 -160 -7 -184 -13 -82 -22 -117 -87 -113 -210 3 -88 10 -120 32 -150
34 -46 67 -55 202 -55 114 0 128 2 163 23 20 13 38 29 38 35 1 7 4 -1 8 -18
l6 -29 98 -1 97 -2 1 46 c2 200 -1 462 -6 491 -14 77 -72 129 -165 146 -35 6
-297 13 -303 8z m269 -463 c-3 -107 -7 -111 -115 -111 -54 0 -94 5 -104 13
-34 24 -25 161 11 170 9 3 60 5 113 6 l97 1 -2 -79z"/>
<path d="M2527 3072 l-28 -3 3 -287 c3 -277 4 -288 25 -323 36 -57 87 -74 213
-73 114 1 166 16 194 56 16 22 16 22 16 -10 0 -17 3 -33 8 -33 46 -7 192 -3
193 5 1 6 2 158 3 339 1 284 -1 327 -14 328 -17 1 -171 1 -182 0 -5 -1 -8
-112 -8 -248 0 -137 -3 -258 -6 -269 -8 -31 -45 -44 -123 -44 -53 0 -74 4 -92
19 l-24 19 0 255 c0 141 -3 258 -7 262 -7 7 -127 12 -171 7z"/>
<path d="M3836 3072 c-11 -3 -14 -8 -8 -15 5 -7 24 -50 42 -97 18 -47 38 -98
45 -115 45 -104 175 -434 175 -444 0 -7 -25 -72 -55 -145 -30 -72 -55 -137
-55 -143 0 -7 34 -10 100 -10 l100 1 19 50 c10 28 61 159 111 291 51 132 101
263 111 290 11 28 43 113 73 190 29 77 50 142 46 145 -11 7 -186 4 -198 -4 -5
-3 -12 -16 -14 -28 -3 -13 -26 -95 -52 -183 -58 -196 -52 -174 -61 -212 -4
-18 -11 -33 -14 -33 -4 0 -15 26 -25 58 -98 317 -129 402 -147 403 -61 3 -178
4 -193 1z"/>
<path d="M24 2161 c-2 -2 -4 -37 -4 -78 0 -73 0 -73 28 -74 15 0 116 -1 224
-1 109 0 198 -2 198 -5 0 -6 -41 -66 -50 -73 -3 -3 -19 -23 -36 -45 -16 -22
-34 -46 -41 -55 -12 -15 -168 -219 -281 -368 -51 -67 -55 -77 -56 -130 -1 -31
-1 -62 1 -67 2 -7 134 -10 376 -10 l372 0 1 73 c1 40 -2 75 -7 78 -5 2 -112 5
-239 5 -126 0 -230 1 -230 3 0 3 100 137 127 171 26 32 246 321 291 381 49 68
52 75 52 133 0 33 -3 61 -7 62 -25 3 -715 3 -719 0z"/>
<path d="M1110 1942 c-46 -6 -125 -35 -150 -54 -33 -26 -58 -65 -71 -113 -15
-51 -15 -318 -1 -369 36 -126 130 -169 362 -162 179 5 248 34 291 123 20 43
23 64 24 208 3 191 -8 238 -64 294 -54 54 -115 72 -253 75 -62 1 -124 0 -138
-2z m193 -133 c26 -7 41 -18 47 -35 6 -14 10 -99 10 -189 0 -213 2 -210 -139
-210 -140 0 -135 -6 -138 197 -1 89 0 173 4 186 13 54 118 79 216 51z"/>
<path d="M2053 1939 c-54 -10 -83 -25 -109 -55 l-20 -24 4 35 c3 25 0 35 -9
36 -24 1 -173 1 -184 0 -14 -1 -14 -671 0 -672 5 -1 52 -2 103 -3 l92 -2 0
261 c0 316 -7 300 126 300 125 0 118 17 118 -292 0 -142 4 -260 8 -263 4 -3
49 -6 100 -5 l93 0 3 263 c1 171 -2 278 -9 305 -15 55 -66 103 -121 112 -64
11 -148 13 -195 4z"/>
<path d="M2780 1943 c-14 -2 -52 -11 -85 -20 -71 -21 -129 -73 -144 -130 -12
-44 -16 -344 -5 -388 17 -75 107 -140 208 -153 111 -15 369 -4 400 16 6 4 11
34 11 69 0 57 -1 62 -20 58 -81 -18 -112 -22 -187 -24 -160 -4 -210 24 -213
117 l-1 47 220 5 221 5 0 85 c2 195 -37 265 -166 300 -42 12 -187 19 -239 13z
m191 -152 c22 -27 27 -126 7 -133 -11 -4 -170 -3 -220 1 -15 1 -17 10 -13 63
5 84 22 98 128 95 69 -2 81 -5 98 -26z"/>
</g>
</svg>
