<svg width="40" height="44" viewBox="0 0 40 44" fill="none" xmlns="http://www.w3.org/2000/svg">
<path d="M20.0917 0.0997033C18.5167 0.0997033 17.0457 0.81689 15.7919 1.9913C14.5383 3.16598 13.465 4.80192 12.5704 6.78352C12.3829 7.19864 12.2038 7.63008 12.0326 8.07511C11.571 8.00183 11.1074 7.94162 10.6423 7.89455C10.1014 7.84064 9.57357 7.80717 9.06075 7.79517C7.52138 7.75861 6.11448 7.9147 4.88138 8.28848C3.23738 8.78695 1.88082 9.70251 1.09332 11.0663C0.305819 12.4304 0.191444 14.0629 0.581725 15.736C0.972194 17.409 1.85223 19.1564 3.12113 20.922C3.38738 21.2924 3.67182 21.6638 3.97201 22.0351C3.67833 22.3977 3.39496 22.7684 3.12226 23.147C1.85326 24.9126 0.973226 26.66 0.582851 28.3331C0.192476 30.0061 0.306944 31.6387 1.09444 33.0025C1.88194 34.3665 3.23851 35.282 4.88251 35.7803C6.5266 36.2789 8.47997 36.3903 10.6434 36.1742C11.097 36.1289 11.5603 36.0683 12.0317 35.994C12.199 36.4304 12.3786 36.8618 12.5704 37.288C13.465 39.2699 14.5382 40.9055 15.7919 42.0801C17.0456 43.2546 18.5168 43.972 20.0917 43.972C21.6665 43.972 23.1376 43.2546 24.3913 42.0801C25.6449 40.9054 26.7182 39.2698 27.6128 37.288C27.8046 36.8619 27.9842 36.4305 28.1515 35.9942C28.6223 36.0683 29.0853 36.1289 29.5385 36.1742C31.702 36.3902 33.6555 36.2788 35.2994 35.7803C36.9436 35.2819 38.3002 34.3664 39.0877 33.0025C39.8752 31.6384 39.9895 30.006 39.5993 28.3331C39.2088 26.6601 38.3287 24.9127 37.0598 23.147C36.787 22.7685 36.5036 22.3977 36.21 22.0351C36.5041 21.6723 36.7879 21.3011 37.0609 20.9221C38.3298 19.1565 39.2098 17.409 39.6002 15.7361C39.9906 14.063 39.8761 12.4305 39.0886 11.0664C38.3011 9.70261 36.9445 8.78705 35.3005 8.28858C34.0675 7.9148 32.6605 7.7587 31.1213 7.79517C30.6082 7.80717 30.0803 7.84064 29.5394 7.89455C29.0857 7.93992 28.6219 8.00077 28.1503 8.07502C27.9832 7.63956 27.8038 7.20889 27.6125 6.78352C26.7178 4.80164 25.6447 3.1657 24.3909 1.9912C23.1372 0.816703 21.6665 0.0997033 20.0917 0.0997033ZM20.0917 1.85161C21.1421 1.85161 22.1722 2.31314 23.1935 3.27005C24.2147 4.22677 25.1901 5.67502 26.016 7.50445C26.1503 7.80294 26.278 8.10436 26.3991 8.40848C24.3912 8.85492 22.2647 9.53986 20.0911 10.455C17.918 9.54005 15.7917 8.8553 13.7843 8.40886C13.9082 8.09855 14.0355 7.79611 14.1673 7.50436C14.9933 5.67483 15.9686 4.22658 16.9899 3.26967C18.0113 2.31295 19.041 1.85161 20.0917 1.85161ZM8.5051 9.54445C8.67422 9.54277 8.84607 9.54389 9.02054 9.54783C9.48554 9.55814 9.96901 9.58814 10.4683 9.63811C10.7876 9.66998 11.114 9.71076 11.4456 9.75886C10.8281 11.7208 10.3581 13.9047 10.0635 16.2445C8.184 17.6695 6.52744 19.1689 5.13694 20.6848C4.93344 20.4274 4.73567 20.1655 4.54379 19.8993C3.37238 18.2694 2.60598 16.7006 2.28788 15.3376C1.96988 13.9747 2.08538 12.852 2.61057 11.9423C3.13576 11.0325 4.05057 10.3713 5.38969 9.9653C6.2686 9.69876 7.32104 9.55523 8.5051 9.54445ZM31.6771 9.54445C32.8612 9.55523 33.9135 9.69886 34.7924 9.96539C36.1317 10.3713 37.0462 11.0325 37.5714 11.9423C38.0966 12.852 38.2122 13.9748 37.8942 15.3376C37.5764 16.7005 36.8095 18.2694 35.6383 19.8993C35.4465 20.1655 35.2487 20.4275 35.0453 20.685C33.655 19.1693 31.9989 17.6702 30.12 16.2454C29.8256 13.9052 29.355 11.721 28.7376 9.75886C29.0688 9.71076 29.3948 9.6698 29.7138 9.63811C30.1951 9.58935 30.6781 9.5592 31.1617 9.54773C31.3334 9.54383 31.5053 9.54286 31.6771 9.54445ZM26.9971 10.0732C27.463 11.5205 27.8488 13.1175 28.1367 14.8263C27.2066 14.198 26.2546 13.6028 25.2824 13.0418C24.311 12.4806 23.3201 11.954 22.3115 11.4628C23.9352 10.8576 25.5109 10.3932 26.9971 10.0732ZM13.1861 10.0735C14.6721 10.3935 16.2475 10.8578 17.8708 11.4629C16.8622 11.9541 15.8713 12.4807 14.8999 13.0418C13.9282 13.6026 12.9765 14.1975 12.0467 14.8253C12.3345 13.1169 12.7202 11.5204 13.1861 10.0735ZM20.0911 12.3666C21.5168 12.9955 22.9639 13.7264 24.4064 14.5592C25.8495 15.3925 27.2067 16.2805 28.4644 17.2011C28.6328 18.7505 28.7233 20.3697 28.7233 22.0358C28.7233 23.701 28.633 25.3195 28.4648 26.8682C27.2071 27.7887 25.8501 28.6765 24.4074 29.5095C22.9646 30.3425 21.5171 31.0737 20.0912 31.7025C18.6651 31.0737 17.2176 30.3425 15.7748 29.5095C14.3324 28.6768 12.9759 27.7892 11.7188 26.8692C11.5505 25.3201 11.46 23.7014 11.46 22.0357C11.46 20.3693 11.5505 18.75 11.7189 17.2004C12.9764 16.28 14.3332 15.3921 15.7758 14.5592C17.2184 13.7265 18.6655 12.9953 20.0911 12.3666ZM20.2096 15.0025L15.1938 18.0978L20.2096 21.1935L25.2254 18.0978L20.2096 15.0025ZM9.82585 18.6713C9.74703 19.791 9.70772 20.9131 9.708 22.0355C9.708 23.1791 9.74832 24.3016 9.82594 25.3978C8.49 24.2943 7.30004 23.1618 6.27966 22.0347C7.30004 20.9076 8.48991 19.7749 9.82585 18.6713ZM30.3576 18.6722C31.6928 19.7757 32.8825 20.9079 33.9025 22.0348C32.8825 23.1616 31.6928 24.2939 30.3576 25.397C30.4363 24.2783 30.4756 23.1571 30.4753 22.0356C30.4753 20.8915 30.4351 19.7687 30.3576 18.6722ZM14.0638 19.4592V25.5715L19.3316 28.8224V22.7104L14.0638 19.4592ZM26.3505 19.4624L21.0839 22.7127V28.8218L26.3506 25.5715L26.3505 19.4624ZM5.13676 23.3849C6.52744 24.9008 8.18382 26.3999 10.0631 27.8249C10.3575 30.1644 10.8278 32.3481 11.445 34.31C11.1141 34.3578 10.7882 34.3988 10.4694 34.4307C8.47219 34.6301 6.73004 34.5094 5.39082 34.1035C4.05151 33.6975 3.13707 33.036 2.61179 32.1263C2.0866 31.2164 1.97101 30.0938 2.28901 28.731C2.60701 27.3681 3.37351 25.7992 4.54491 24.1693C4.73639 23.9034 4.93366 23.6419 5.13676 23.3849ZM35.0453 23.3851C35.2522 23.6476 35.4503 23.9092 35.6371 24.1693C36.8084 25.7991 37.5749 27.368 37.8929 28.7309C38.2109 30.0937 38.0956 31.2164 37.5704 32.1262C37.045 33.0359 36.1304 33.6975 34.7911 34.1034C33.452 34.5093 31.7101 34.63 29.7128 34.4306C29.3872 34.3975 29.0622 34.3574 28.7383 34.3101C29.3557 32.3477 29.8258 30.1635 30.1202 27.8235C31.9989 26.3989 33.655 24.9004 35.0453 23.3851ZM28.1371 29.2429C27.8493 30.9516 27.4636 32.5485 26.9977 33.9958C25.5113 33.6758 23.9355 33.2113 22.3117 32.6062C23.3205 32.1148 24.3118 31.5879 25.2835 31.0267C26.2555 30.4658 27.2071 29.8709 28.1371 29.2429ZM12.0463 29.2439C12.9758 29.8715 13.9271 30.4662 14.8986 31.0267C15.8703 31.5879 16.8616 32.1147 17.8704 32.6062C16.2471 33.2112 14.6717 33.6756 13.1855 33.9956C12.7195 32.5486 12.3341 30.9521 12.0463 29.2439ZM20.1435 29.3235L20.2073 29.3629L20.2707 29.3235H20.1435ZM20.091 33.6142C22.2651 34.5292 24.3917 35.214 26.3998 35.6604C26.2786 35.9654 26.1506 36.2676 26.016 36.5669C25.1901 38.3963 24.2147 39.8444 23.1934 40.8014C22.1722 41.7582 21.1421 42.2198 20.0917 42.2198C19.0411 42.2198 18.0111 41.7582 16.9898 40.8014C15.9686 39.8445 14.9933 38.3963 14.1673 36.5669C14.0327 36.2675 13.9047 35.9653 13.7834 35.6603C15.7912 35.2139 17.9174 34.5291 20.091 33.6142Z"/>
</svg>
